<svg width="31" height="31" viewBox="0 0 31 31" fill="none" xmlns="http://www.w3.org/2000/svg">
<circle cx="15.5" cy="15.5" r="15.5" fill="white"/>
<g clip-path="url(#clip0_327_82)">
<path d="M13.0696 19.3554C13.1073 19.4316 13.1888 19.5273 13.3537 19.6894C13.5484 19.8789 13.606 19.9218 13.7013 19.957C13.8444 20.0097 13.9616 20.0117 14.0967 19.9609C14.1941 19.9258 14.3967 19.7324 16.5503 17.6133C18.3841 15.8086 18.9086 15.2832 18.9384 15.2148C18.9662 15.1562 18.9801 15.084 18.9801 15C18.9801 14.7422 19.1272 14.9023 16.5503 12.3711C14.3192 10.1777 14.2179 10.08 14.1066 10.041C13.9616 9.98825 13.8464 9.98825 13.7013 10.0429C13.606 10.0761 13.5484 10.1211 13.3556 10.3105C13.0695 10.5898 13.0318 10.6562 13.0298 10.8691C13.0298 10.9824 13.0397 11.0468 13.0676 11.1035C13.0934 11.1562 13.7292 11.7968 15.0444 13.0918L16.9835 15L15.0424 16.9101C13.9755 17.959 13.0874 18.8496 13.0676 18.8867C13.0477 18.9277 13.0298 19.0136 13.0258 19.1015C13.0179 19.2285 13.0239 19.2617 13.0696 19.3554Z" fill="#004D8C"/>
</g>
<defs>
<clipPath id="clip0_327_82">
<rect width="10" height="6" fill="white" transform="translate(13 20) rotate(-90)"/>
</clipPath>
</defs>
</svg>
